<?xml version="1.0" standalone="no"?><!DOCTYPE svg PUBLIC "-//W3C//DTD SVG 1.1//EN" "http://www.w3.org/Graphics/SVG/1.1/DTD/svg11.dtd">
<svg t="1534951988122" class="icon" style="" viewBox="0 0 1030 1024" version="1.1" 
    xmlns="http://www.w3.org/2000/svg" p-id="2666" 
    xmlns:xlink="http://www.w3.org/1999/xlink" width="201.171875" height="200">
    <defs>
        <style type="text/css"></style>
    </defs>
    <path d="M771.074095 1011.991273l-60.113455 0c-40.052364 0-71.098182-42.938182-71.098182-79.872L639.862458 772.654545c0-16.384-26.577455-59.601455-38.935273-63.348364l-163.165091 0.139636c-8.610909 0.721455-30.626909 29.649455-30.626909 46.731636l0 182.411636c0 37.725091-37.073455 73.402182-76.288 73.402182l-71.726545 0c-40.098909 0-84.712727-53.573818-84.712727-89.879273L174.407913 570.810182c0-11.566545-15.127273-24.273455-28.928-24.273455l-70.981818 0.837818c-49.291636 0-65.698909-21.899636-71.144727-34.932364-5.422545-13.056-9.355636-40.145455 25.204364-74.891636L425.497367 38.493091c22.946909-23.086545 53.597091-35.793455 86.248727-35.793455 0.023273 0 0.023273 0 0.023273 0 32.674909 0 63.325091 12.706909 86.295273 35.793455L995.004276 437.527273c34.56 34.769455 30.626909 61.858909 25.204364 74.914909-5.422545 13.056-21.853091 34.932364-70.888727 34.932364-12.869818 0-23.272727-10.426182-23.272727-23.272727s10.402909-23.272727 23.272727-23.272727c19.991273 0 27.112727-4.980364 27.927273-6.330182 0.349091-1.396364-1.163636-9.960727-15.243636-24.157091L565.063913 71.307636c-28.322909-28.485818-78.242909-28.462545-106.565818 0L61.558458 470.341818c-14.103273 14.196364-15.592727 22.760727-15.197091 24.250182 0.744727 1.233455 7.866182 6.213818 27.857455 6.213818l70.981818-0.837818c39.773091 0 75.752727 33.745455 75.752727 70.818909l0 351.301818c0 14.452364 27.392 43.333818 38.167273 43.333818l71.726545 0c13.335273 0 29.742545-14.801455 29.742545-26.856727l0-182.411636c0-35.141818 36.072727-93.277091 77.172364-93.277091l164.398545 0c44.171636 0 84.224 79.010909 84.224 109.754182l0 159.464727c0 14.336 14.010182 33.326545 24.552727 33.326545l60.113455 0c13.335273 0 31.697455-16.477091 31.697455-28.416L802.748276 569.809455c0-12.846545 10.402909-23.272727 23.272727-23.272727s23.272727 10.426182 23.272727 23.272727l0 367.220364C849.317004 974.871273 810.567913 1011.991273 771.074095 1011.991273z" p-id="2667"></path>
</svg>